# xmcd CD database file
#
# Track frame offsets:
#	150
#	14126
#	28557
#	43354
#	60346
#	71678
#	84814
#	101341
#	115182
#	130857
#	142310
#	156896
#	173133
#	188898
#	198398
#	214929
#	231221
#	246849
#	260571
#	273658
#	286727
#	302678
#	315896
#	329422
#	341753
#
# Disc length: 4757 seconds
#
# Revision: 0
# Processed by: cddbd v1.5.1PL2 Copyright (c) Steve Scherf et al.
# Submitted via: CDex 1.40Release
#
DISCID=74129319
DTITLE=Diversos - Saudades do Sertão (vol.2)
DYEAR=1900
DGENRE=Country
TTITLE0=Tonico and Tinoco - chico mineiro
TTITLE1=Peão Carreiro and Zé Paulo - berrante da saudade
TTITLE2=Suzamar - pombinha branca
TTITLE3=Donizetti - serenata suburbana
TTITLE4=Mensageiro and Mexicano - espeinho na cama
TTITLE5=Teodoro and Sampaio - se a casa cair
TTITLE6=Lourenço and Lourival - mágoa de boiadeiro
TTITLE7=As Marcianas - colcha de retalhos
TTITLE8=Ataíde and Alexandre - ô de casa, ô de fora
TTITLE9=Pena Branca and Xavantinho - calix bento
TTITLE10=Zico and Zeca - joão ninguém
TTITLE11=Alan and Aladin - dói cotovelo
TTITLE12=Inezita Barroso - moda pinga
TTITLE13=Milionário and José Rico - estrada da vida
TTITLE14=Carlos Cesar and Cristiano - a volta do boiadeiro
TTITLE15=Juliano Cesar - rumo à goiânia
TTITLE16=Silveira and Silveirinha - folia de reis
TTITLE17=Irmãs Galvão - quem diria
TTITLE18=Sérgio Reis - saudade da minha terra
TTITLE19=As Mineirinhas - deixe que falem de nós
TTITLE20=Barrerito -  nossos momentos de amor
TTITLE21=Irídio and Irineu - recordação de boiadeiro
TTITLE22=As Marcianas - xonado de novo
TTITLE23=Tonico and Tinoco - moreninha linda
TTITLE24=Teodoro and Sampaio - o garrafão
EXTD=ID3G: 2
EXTT0=
EXTT1=
EXTT2=
EXTT3=
EXTT4=
EXTT5=
EXTT6=
EXTT7=
EXTT8=
EXTT9=
EXTT10=
EXTT11=
EXTT12=
EXTT13=
EXTT14=
EXTT15=
EXTT16=
EXTT17=
EXTT18=
EXTT19=
EXTT20=
EXTT21=
EXTT22=
EXTT23=
EXTT24=
PLAYORDER=
